<svg xmlns="http://www.w3.org/2000/svg" version="1.1" xmlns:xlink="http://www.w3.org/1999/xlink"
    xmlns:svgjs="http://svgjs.com/svgjs" width="512" height="512" x="0" y="0" viewBox="0 0 250 250"
    style="enable-background:new 0 0 512 512" xml:space="preserve" class="">
    <g>
        <path xmlns="http://www.w3.org/2000/svg"
            d="m125.3 47c3.9 20.63 1.74 41.66.61 63 1.14 31 5.3 64.07-1.21 93-3.69-25.7-3.53-51.76-1.34-78 2.83-25.16-5.05-54.13 1.94-78z"
            fill="#000000" data-original="#000000"></path>
        <path xmlns="http://www.w3.org/2000/svg" d="m186.5 124.75c5-.63 11.41-4.66 16.5 0-2.32 4.83-12.77 2.08-16.5 0z"
            fill="#000000" data-original="#000000"></path>
        <path xmlns="http://www.w3.org/2000/svg"
            d="m146.5 125.3c-13.52 4.17-27.49 1.29-42 .64-19.5 1.77-39 4.52-57.75-1 16.51-4.27 34-3.65 51.53-1.37 15.95 2.24 33.72-5.06 48.22 1.73z"
            fill="#000000" data-original="#000000"></path>
        <path xmlns="http://www.w3.org/2000/svg" d="m176.5 125.2c-6.19.41-13.36 3.83-20 0 3.93-4.11 14.94-1.52 20 0z"
            fill="#000000" data-original="#000000"></path>
    </g>
</svg>