<svg xmlns="http://www.w3.org/2000/svg" version="1.1" xmlns:xlink="http://www.w3.org/1999/xlink"
    xmlns:svgjs="http://svgjs.com/svgjs" width="512" height="512" x="0" y="0" viewBox="0 0 256 256"
    style="enable-background:new 0 0 512 512" xml:space="preserve" class="">
    <g>
        <path xmlns="http://www.w3.org/2000/svg"
            d="m182.11 202.45c-30.26 22.44-72.28 23.93-104.65 5.06-34.88-20.33-52.21-61.43-46.35-100.85 5.4-36.3 31-68.22 65.91-80 36.12-12.14 76.98-2.14 103.08 25.58a97.75 97.75 0 0 1 25.65 53.48 95.58 95.58 0 0 1 .05 26.28c-.32 2.29-6.29 27.7-8.21 26.81.25.12 5-21.73 5.28-23.89a99.14 99.14 0 0 0 -1.37-29.82 96.6 96.6 0 0 0 -22.29-45c-25.08-28.4-65.64-39.7-101.71-27.9-71.43 23.37-87.35 116.52-28.5 162.99a98.48 98.48 0 0 0 55.88 21.13c17.85.94 43.51-3.47 57.23-13.87z"
            fill="#000000" data-original="#000000" class=""></path>
        <path xmlns="http://www.w3.org/2000/svg"
            d="m101.27 215.48c1.94 4.81-2.59 8-4.18 11.9-.51 1.26-2.68 13.55-7.15 10.49-4.94-3.39 5-12.25 6.14-14.44-.3.57 3.35-12.43 5.19-7.95z"
            fill="#000000" data-original="#000000" class=""></path>
        <path xmlns="http://www.w3.org/2000/svg"
            d="m155.19 215.22c5 1.53 4.54 7 6.61 10.75.65 1.18 8.83 10.62 3.64 12.16-5.75 1.7-6.38-11.59-7.35-13.87.26.59-7.56-10.45-2.9-9.04z"
            fill="#000000" data-original="#000000" class=""></path>
        <path xmlns="http://www.w3.org/2000/svg"
            d="m90.62 32c-16.94-14.36-44.5-16.87-57.18 4a38 38 0 0 0 -5.44 16.12 40.27 40.27 0 0 0 2 17.76c.29.83 7.62 15.32 8.45 14.59-5.1 4.48-14.9-24.8-15-26.83a36.31 36.31 0 0 1 12.18-28.44c8.68-7.59 21.55-13.09 33.2-11.37 10.91 1.61 15.02 8.43 21.79 14.17z"
            fill="#000000" data-original="#000000" class=""></path>
        <path xmlns="http://www.w3.org/2000/svg"
            d="m217.79 84.87c10.74-12 17.08-32.19 8.06-47-5.39-8.84-15.5-14.59-25.58-16.16a40.47 40.47 0 0 0 -18 1.26c-1.66.51-17.19 8.46-16.42 9.32-3.9-4.32 21.51-14.69 23.8-15a36.19 36.19 0 0 1 32 12.15c7.61 8.85 13 22 11 33.72-1.89 11-8.86 15.02-14.86 21.71z"
            fill="#000000" data-original="#000000" class=""></path>
        <path xmlns="http://www.w3.org/2000/svg" d="m62.72 121.29c-2.29 1.21-12.36 5.14-10.45-1.13s9.1 1.84 10.45 1.13z"
            fill="#000000" data-original="#000000" class=""></path>
        <path xmlns="http://www.w3.org/2000/svg" d="m127.66 55.75c-1.21-2.29-5.13-12.36 1.14-10.45s-1.8 9.1-1.14 10.45z"
            fill="#000000" data-original="#000000" class=""></path>
        <path xmlns="http://www.w3.org/2000/svg" d="m128.26 186.24c1.21 2.28 5.14 12.35-1.13 10.44s1.87-9.1 1.13-10.44z"
            fill="#000000" data-original="#000000" class=""></path>
        <path xmlns="http://www.w3.org/2000/svg"
            d="m193.21 120.69c2.29-1.21 12.35-5.14 10.44 1.13s-9.1-1.82-10.44-1.13z" fill="#000000"
            data-original="#000000" class=""></path>
        <path xmlns="http://www.w3.org/2000/svg"
            d="m128.16 72.92c3.05 6.67.34 14.22 1.15 21.2.16 1.43.82 19.74-1.43 18.82-4.63-1.9-1-18-.8-21.31.24-3.89-1-7.38-.9-11.23.02-1.13 1.82-7.88 1.98-7.48z"
            fill="#000000" data-original="#000000" class=""></path>
        <path xmlns="http://www.w3.org/2000/svg"
            d="m133.14 126.86c9.44 4.75 14.66 14.5 22.77 20.91 1.78 1.41 20.53 19.08 18.49 20.27-4.25 2.5-20.38-18.56-22.65-21.24-3.62-4.27-8.34-6.93-12.25-10.87-1.5-1.55-5.72-8.75-6.36-9.07z"
            fill="#000000" data-original="#000000" class=""></path>
        <path xmlns="http://www.w3.org/2000/svg"
            d="m135.81 121.53c-.34 15-17.36 10.7-17-1.91.26-12.12 17.13-11.07 17 1.91zm-.6 0c-.1-6.69-13.35-5.44-13.22 1.25.13 7.04 13.33 3.96 13.22-1.25z"
            fill="#000000" data-original="#000000" class=""></path>
        <path xmlns="http://www.w3.org/2000/svg" d="m225.23 17.79c2.47.75 12.28 5 6.51 8.11s-5.06-7.67-6.51-8.11z"
            fill="#000000" data-original="#000000" class=""></path>
        <path xmlns="http://www.w3.org/2000/svg" d="m32.19 18.21c-.75 2.47-5 12.28-8.11 6.51s7.67-5.06 8.11-6.51z"
            fill="#000000" data-original="#000000" class=""></path>
        <path xmlns="http://www.w3.org/2000/svg"
            d="m208 121.53c.06 32.84-19.82 64.05-50.65 76.09-32.72 12.79-70.32 1.42-92-25.77-21.32-26.67-24.25-65-6.08-94.14a81.63 81.63 0 0 1 84.75-36.47c37.47 7.64 64.07 42.29 63.98 80.29zm-.4 0c-.6-71.53-94.28-104.18-139.91-49.46-21 25.23-24.49 62.28-7.41 90.53s50.87 41.92 82.91 35.45c36.27-7.33 64.14-39.2 64.37-76.52z"
            fill="#000000" data-original="#000000" class=""></path>
    </g>
</svg>