<svg xmlns="http://www.w3.org/2000/svg" version="1.1" xmlns:xlink="http://www.w3.org/1999/xlink"
    xmlns:svgjs="http://svgjs.com/svgjs" width="512" height="512" x="0" y="0" viewBox="0 0 256 256"
    style="enable-background:new 0 0 512 512" xml:space="preserve" class="">
    <g>
        <path xmlns="http://www.w3.org/2000/svg"
            d="m114.52 186.71c-11.72 14.91-24.58 30.68-45.88 27.45-23.75-3.6-37-30.81-29.48-52.58 5.39-15.62 85-89.89 86.31-88.28 1.76 2.14-33.18 37.43-36.64 41-12.64 13.11-26.51 25-39.19 38s-14.83 33.75-.92 47c12.56 12.01 33.28 13.1 47.08 2.7 4.66-4.24 15.42-11.09 18.72-15.29z"
            fill="#000000" data-original="#000000" class=""></path>
        <path xmlns="http://www.w3.org/2000/svg"
            d="m164.9 113.1c-11.3 13-23.11 25.55-35 38-6.13 6.37-11.76 12.9-21.34 13.37-17.77.87-29.16-19.66-18.61-34.13 5-6.92 12.91-12.61 19.06-18.54 13.44-13 26.35-26.53 39.13-40.18 11.06-11.81 22.26-28.75 40.18-28.87a30.94 30.94 0 0 1 30.38 25.22c2.35 13-4 22.81-12.84 31.34-8.24 7.92-53.94 51.21-54.65 50.41-1.54-1.73 39.74-43.33 47-50.85 5.81-6 12.39-11.65 14.12-20.25 3-15.1-8.63-29.78-24-30.11-12.52-.26-20.34 9.33-28.65 17.14-13.11 12.32-26.29 24.55-39 37.26-10.47 10.45-48.82 41.84-20 54.71 11.09 5 18.67-2.86 26-9.87q9-8.66 18.17-17.18c5.89-5.66 15.57-12.32 20.05-17.47z"
            fill="#000000" data-original="#000000" class=""></path>
    </g>
</svg>