<svg xmlns="http://www.w3.org/2000/svg" version="1.1" xmlns:xlink="http://www.w3.org/1999/xlink"
    xmlns:svgjs="http://svgjs.com/svgjs" width="512" height="512" x="0" y="0" viewBox="0 0 250 250"
    style="enable-background:new 0 0 512 512" xml:space="preserve" class="">
    <g>
        <path xmlns="http://www.w3.org/2000/svg"
            d="m77.43 151.15c4.43 4.57 10.87 7.76 13.35 15-4.92-.94-10.78-10.34-13.35-15z" fill="#000000"
            data-original="#000000" class=""></path>
        <path xmlns="http://www.w3.org/2000/svg"
            d="m202.18 116.61c-13.46.43-26.88.69-40.82.67-1.91.17-1.41-.27-1.4-3.1-.89-33.42 4.26-70.41-.82-70-22.69-.47-32.43-.44-62.76-.78-6.11.26-9.64-1.54-10.69 3.07-.1 22.34.08 46.58.48 69.12-51 2.26-48.43-6.46-16.76 27.36 2.49 2.45.78-.65-1.24-2.72-5.73-7.05-10.93-13.31-16.74-20.27 39.13 0 40.9 5.19 40.19-7.34.62-23.91.08-44.64.66-63 16 .51 68-2.18 64.51.34.67 28 1.3 45.85 1.32 68.22 11.47 2.46 27.4.2 40.44 1.45-25.47 25.75-50.71 53.57-74.66 81.05-8.48-8.1-18.35-21-26.76-26.82.85 1.07 2.25 2.83 3.84 4.81 30.08 34.18 15.69 33.16 41.92 7.69 14.33-16.19 68.51-71.06 59.29-69.75z"
            fill="#000000" data-original="#000000" class=""></path>
    </g>
</svg>

