<svg xmlns="http://www.w3.org/2000/svg" version="1.1" xmlns:xlink="http://www.w3.org/1999/xlink"
    xmlns:svgjs="http://svgjs.com/svgjs" width="512" height="512" x="0" y="0" viewBox="0 0 256 256"
    style="enable-background:new 0 0 512 512" xml:space="preserve" class="">
    <g>
        <path xmlns="http://www.w3.org/2000/svg"
            d="m106 86c12.06 7.41 17.83 21.73 28.67 30.25 2.24 1.76 31.85 26.67 29.23 28.48-2.94 2-17.46-10.63-19.67-12.67a109.54 109.54 0 0 1 -11.88-13.49c-6.81-8.65-26.82-21.02-26.35-32.57z"
            fill="#000000" data-original="#000000"></path>
        <path xmlns="http://www.w3.org/2000/svg"
            d="m105.81 86.36c9.64-4.78 24.83-6.92 34.71-1.27.26.15 2.48-3.09 3.82-1.56.86 2.29-2.29 5.58-4.06 6.23-2.88 1-8.46-1.6-11.36-2.28-6.29-1.48-18.46-3.48-23.11-1.12z"
            fill="#000000" data-original="#000000"></path>
        <path xmlns="http://www.w3.org/2000/svg"
            d="m178.84 43.68c.86-2 5.17-10.85 7.44-6.33 1.72 3.43-7.13 5.65-7.44 6.33z" fill="#000000"
            data-original="#000000"></path>
        <path xmlns="http://www.w3.org/2000/svg"
            d="m164 144.92c.39-5.61 1-11.18 1-16.82 0-4.25-2.88-12.54-1.81-16.36.74-2.67 4.69-4.9 6.72-6.92 4.06-4.06 7.53-8.68 11.45-12.87 3.73-4 32.21-29.47 33.47-27.29 2.09 3.63-20.95 23.68-23.77 26.09-8.24 7.07-25.33 20.78-25.33 20.78l.13.23c3.46 6.19 5.15 12.32 4.1 19.49-.64 4.24-5.82 11.57-5.96 13.67z"
            fill="#000000" data-original="#000000"></path>
        <path xmlns="http://www.w3.org/2000/svg"
            d="m180.62 29.69a245.25 245.25 0 0 1 19.75 15.76c2.53 2.19 24.15 24 20.67 25.26-5.55 2.08-20.51-18.53-24.08-22.49-4.89-5.41-11.63-15.22-16.34-18.53z"
            fill="#000000" data-original="#000000"></path>
        <path xmlns="http://www.w3.org/2000/svg"
            d="m142.23 126.94c-25.92 25.94-55.34 47.42-82.58 71.83-2.18 2-8.56 9.84-11.48 9-1.43-.42 6.06-8.86 6.1-8.91 7.73-9.37 15.73-18.57 23.63-27.77 4.13-4.77 51.53-57.24 52.46-56.3 2.66 2.66-68.26 79.79-68.26 79.79s29.29-26.58 44.36-39.42c11.34-9.64 26.04-18.5 35.77-28.22z"
            fill="#000000" data-original="#000000"></path>
    </g>
</svg>