<svg xmlns="http://www.w3.org/2000/svg" version="1.1" xmlns:xlink="http://www.w3.org/1999/xlink"
    xmlns:svgjs="http://svgjs.com/svgjs" width="512" height="512" x="0" y="0" viewBox="0 0 256 256"
    style="enable-background:new 0 0 512 512" xml:space="preserve" class="">
    <g>
        <path xmlns="http://www.w3.org/2000/svg"
            d="m223.48 101.91c-2.62-10.51-19.16-9.09-18.95-21.67-.36-5.18 3.84-7.86 5.53-12.94 3.69-10.55-4.2-22-15.28-23.18-6.53-.87-11.9 4.35-18.63.28-9.46-4.61-4.15-15.83-11.34-22.4-21.37-15.75-22.14 8.67-36.81 7.18-6.54-.31-8.76-5.26-13-9.75-7.48-6.75-19.1-4.87-25.13 3.09-5.85 7.4 0 17.06-8.8 22.8-8.5 6.31-13.63-1-22.32 1.12-8.12 2.16-13.19 10.14-11.92 18.88.84 5.9 7.2 10.4 5 17.54-1.88 7.6-7.4 7.36-13.49 11.34a17.14 17.14 0 0 0 -2.92 24.49c3.58 4.81 8.13 4.42 13.42 7.43 10 8.27 5.06 15.22-.6 24.16-5.53 16.25 10.45 27 24.7 20.56a13.87 13.87 0 0 1 13.56 6.55c-25.12 74.17-18.07 53 8.11 48.77 5.79 5.54 8.61 8.34 14 14.38 2.55 2.09 6.09-16.73 7.39-18.85 6.24-16.06 2.6-34.35 13.18-32.32 9.09.07 5.26 12.86 8.55 19.46 2.52 7 8.06 39.61 12.4 29.85 4.12-4.15 9.56-9.59 13.75-12.82 6.13 1.21 22.83 10.18 22.46 4.18-4.3-17.15-9-36-16-52.61 8.13-14.25 15.45-4.18 27.13-5.8 13.57-3.09 16.77-19.14 7.9-28.67a13.47 13.47 0 0 1 -.56-12.52c2.28-5.28 6.79-7 12.12-9 6.79-3.92 9.07-11.98 6.55-19.53zm-105.14 98.61a289.84 289.84 0 0 0 -9.57 38.15c-18.46-19.87-10.85-15.5-33.51-10.89a437.46 437.46 0 0 0 11.36-50.15c3 4.08.84 9.66 3.36 14.76 8 13.88 22.61 10.44 31.45-.89-1.1 2.99-2.11 6-3.09 9.02zm54.31-9.42c2.43 11.92 5.3 24.21 8.92 36.63-26.66-7.29-15.59-4-33.49 11a294.24 294.24 0 0 0 -12.55-47.07c9.48 13.42 27.61 13.7 33.09-1.75 1.46-3.9-.34-7.85 1.59-12.35.56 3.79 1.55 9.14 2.44 13.54zm48.46-80.42a14.23 14.23 0 0 1 -6 10.22c-35.93 14.84 2.6 29.64-15.37 44.8a12.76 12.76 0 0 1 -9.21 2.78c-35.19-6.22-13.38 28.51-38.71 27.85-9.55-1.25-12.35-15.12-23.94-13.41-13.86-.38-11.89 13.53-25.25 13.87-12.23-.79-13.03-10.27-13.84-19.59-4-11.15-13.75-12.35-24-9.6a12.19 12.19 0 0 1 -7.89-2.44c-19.71-17.31 20.3-26.94-17.16-47.16-2.5-3.08-3.37-5.38-3.14-10.22.73-4.45 2.14-7 6.21-9.47 10.26-2.58 18.42-11.9 15-23-3.48-7.4-11.14-15.58-1.18-24.4 9.62-8.37 19.4 4.29 29.07-5.43 4.94-4 5-9.76 6-16.08 14.13-23.12 23.78 6.07 36.59 3.47 13.66.1 14-17.68 28.52-13.2 9.84 2.81 9 11.24 9.87 19.2 3.18 11.36 14.18 14.5 24.58 11a11.52 11.52 0 0 1 8.37 2.42c9.46 7.93 2.6 14.72-.7 22.8-3.04 15.91 6.62 18.53 18.07 24.54 3.1 2.92 4.25 6.29 4.11 11.05z"
            fill="#000000" data-original="#000000" class=""></path>
        <path xmlns="http://www.w3.org/2000/svg"
            d="m168.87 56.65c-37.81-30.85-92.32-10.65-103.22 33.97-.19.84-.33 1.4-.67 2.89.06 0 0 .44.39.09a67.15 67.15 0 0 1 38.63-43.43c57.94-22.14 107 34.06 81.51 85.88-23.95 47.13-87.71 45.67-112.71 4.35-3.54-5.32-5.45-11.32-7.67-17-.09 1.88 1.35 6.21 2.21 8.83 8 23.68 30.61 41.09 55.59 43.17 68.96 4.13 95.53-78.53 45.94-118.75z"
            fill="#000000" data-original="#000000" class=""></path>
        <path xmlns="http://www.w3.org/2000/svg"
            d="m172.59 86.27c-13.6 21.38-34.65 36.41-53 54-1.58 2.1-2.07 1.52-4.83-.89-6-4.67-10.32-8.22-15.53-14.21-31.55-36.82 15.91 6.41 19.46 14.55h-1.6c17.91-17.17 33.75-42.12 55.5-53.45z"
            fill="#000000" data-original="#000000" class=""></path>
    </g>
</svg>