<svg xmlns="http://www.w3.org/2000/svg" version="1.1" xmlns:xlink="http://www.w3.org/1999/xlink"
    xmlns:svgjs="http://svgjs.com/svgjs" width="512" height="512" x="0" y="0" viewBox="0 0 250 250"
    style="enable-background:new 0 0 512 512" xml:space="preserve" class="">
    <g>
        <path xmlns="http://www.w3.org/2000/svg"
            d="m125.26 95.54c5.11 37.56.81 83.34-3.33 42.72.89-13.78.65-30.88 3.33-42.72z" fill="#000000"
            data-original="#000000" class=""></path>
        <path xmlns="http://www.w3.org/2000/svg"
            d="m143.71 135.8c-6 3.78-12.13 10.07-18.3 15.11-28-29.41-20.93-8.46-1.48 5.64 6.07-.43 16.44-17.27 19.78-20.75z"
            fill="#000000" data-original="#000000" class=""></path>
        <path xmlns="http://www.w3.org/2000/svg"
            d="m221.11 185.5c-19.83 24.44-50.53 18.92-79.9 20-26.65-.11-55.81 1.17-83.53-1.21-59.44-11-55.6-91.95-1.65-105.86l-1.69 1.79c13.4-66.69 103.21-75.4 133-19l-1.65-1.32c30.63 8.19 53.58 40.4 48.5 67.47a63.6 63.6 0 0 0 -21.37-47.14 67.79 67.79 0 0 0 -16.75-11c-4.5-2.67-9.25-2.39-13.38-5.39a65.08 65.08 0 0 0 -19.23-21.24c-43.71-28.89-93-5.51-106.3 40.21-51.59 11.48-55.31 83.19-5.88 96.47 7.68 2.05 15.37 1.66 23.47 1.41 109.54-2.61 116.11 8.57 146.36-15.19z"
            fill="#000000" data-original="#000000" class=""></path>
        <path xmlns="http://www.w3.org/2000/svg"
            d="m234.12 158.24c-.67 6-.48 14.95-7.08 18.81.62-5.47 5.16-13.29 7.08-18.81z" fill="#000000"
            data-original="#000000" class=""></path>
    </g>
</svg>