<svg xmlns="http://www.w3.org/2000/svg" version="1.1" xmlns:xlink="http://www.w3.org/1999/xlink"
    xmlns:svgjs="http://svgjs.com/svgjs" width="512" height="512" x="0" y="0" viewBox="0 0 250 250"
    style="enable-background:new 0 0 512 512" xml:space="preserve" class="">
    <g>
        <path xmlns="http://www.w3.org/2000/svg"
            d="m124.74 154.46c-5.11-37.56-.81-83.34 3.33-42.72-.89 13.78-.65 30.88-3.33 42.72z" fill="#000000"
            data-original="#000000" class=""></path>
        <path xmlns="http://www.w3.org/2000/svg"
            d="m143.71 113.83c-20.4-33.21-20.05-19-37.42 0 5.28-2 12.3-10.25 18.3-14.74 4.33 5.08 12.41 13.67 19.12 14.74z"
            fill="#000000" data-original="#000000" class=""></path>
        <path xmlns="http://www.w3.org/2000/svg"
            d="m234 141a49.11 49.11 0 0 1 .86 10.13v-.18c.3 3.2 1.22 7-2 10-1.36-5.49-.09-13.78 1.14-19.95z"
            fill="#000000" data-original="#000000" class=""></path>
        <path xmlns="http://www.w3.org/2000/svg"
            d="m230.07 171.12c-18.4 42.84-60.69 33.06-91.87 34.52-29.78-.27-54.28.65-82.13-2-58.84-12.08-54.16-92.07-.6-105.52l-1.91 2c13.7-66.77 103.29-75.33 133-18.77l-1.47-1.17c23.18 6.58 44.1 26.81 47.4 51.05-2-4.28-3.7-10.81-6.68-15.26-9-16.83-26.1-26.15-43.43-32.38-29.62-50.85-106.49-40.86-122.49 12.33-1.33 7-1.86 7-8.6 8.75-53.06 18.33-44.39 95.33 11.54 96.62 8.39-.08 14.06-.23 22.58-.45 98.64-3.46 116.65 11.71 144.66-29.72z"
            fill="#000000" data-original="#000000" class=""></path>
    </g>
</svg>