<svg xmlns="http://www.w3.org/2000/svg" version="1.1" xmlns:xlink="http://www.w3.org/1999/xlink"
    xmlns:svgjs="http://svgjs.com/svgjs" width="512" height="512" x="0" y="0" viewBox="0 0 250 250"
    style="enable-background:new 0 0 512 512" xml:space="preserve" class="">
    <g>
        <path xmlns="http://www.w3.org/2000/svg"
            d="m100.77 67.58c69.39-30.11 115.93 54.89 67.53 104-51.42 48.81-128-7.08-102.2-68.7 8-15.92 3.83-5 1.53 1.25-16.63 57.55 45.16 100.38 92.22 69.87 61.22-45.11 4.79-126.6-59.08-106.42z"
            fill="#000000" data-original="#000000"></path>
        <path xmlns="http://www.w3.org/2000/svg"
            d="m76.78 85.79c3.68-4.79 7.65-12.64 15.22-13.2-2.94 4.66-10.75 9.51-15.22 13.2z" fill="#000000"
            data-original="#000000"></path>
        <path xmlns="http://www.w3.org/2000/svg"
            d="m228.5 106.8c-18.48 1.14-13.35-2.43-19.63-16.94-1.84-6.24-6.39-9.21-6.86-16 8.65-18 20.24-6.32-8.74-33.59-6.72-6.91-10.84 9.61-18.78 8.66-10.06-3.25-18.55-8.88-29.56-11.35-11.51-5.75 4.64-22.54-14.79-19.89-17.8 1.2-21.37-5.49-20.74 11.43.34 11.64-15.68 9.58-23.35 14.81-11.39 6.31-12.72 6.91-22.56-4.19-4.49-5.58-12.28 6.26-14.63 7.75-7.2 7.93-14.94 10.51-7.48 17.51 5.89 5.85 9.46 8.23 4.68 15.61a90.09 90.09 0 0 0 -8.52 21.9c-2.13 8-12.74 3.29-18.7 5.92-4.07 2-1.41 13.36-2 15.13-.33 23.47.42 15 17.51 17.87 7 4.13 5.69 13.9 10.45 20.83 6.94 12.19 7.94 13.11-2.89 23.39-6.47 3.79 4.64 10.95 6 12.88 6.56 5 10 14.09 15.07 9.52 4.2-3.55 6.94-9.56 13.61-9.25 9.23 2.9 16.63 8.64 26.74 10.47 10.44 2.86 4.77 14 7.73 20.78 3.47 1.8 10.24.35 12.76.79 8.5-.68 10.84 1.45 15.37-1.06 2.53-6.34-2.47-15 5.18-19.57 5.56-2.47 11.06-3 17-6.06 6.61-2.46 12-9 19.11-2.8 11.68 13.5 9.82 7.7 21-1.85 5.25-6.65 10.77-6.08 8.29-12.81-16.22-14.87-6.91-14.31-.93-30.4 6-16.84 3.35-14.1 21.27-14.63 6.43-1.68 3.18-12.64 4-17.19-.5-9.47 2.56-16.25-5.61-17.67zm0-.6c9.83.79 5.44 14 6.44 22.56.2 10.62 1.76 15.18-14 14.53-5.82-.49-6.74 2.34-8.53 9.67a93.84 93.84 0 0 1 -8.15 18.87c-2.2 6.09 8.38 9.2 10.1 15.11 1.75 6.63-3.91 9.66-9 15.39-6.37 5.71-6.65 9.34-14.12 12.41-9.88 2.93-11.94-14.18-20.17-8.83-7.43 4.49-15.37 6.93-23.92 9.85-1.4 1-1 2.93-1.05 5 1.57 18.62-6.55 16.61-24 16.49-13 .33-19.7.87-18.34-17.26-.12-1.24.52-2.16-.8-4-8.07-3.26-16.88-5.4-25.23-10.75-10.73-4.24-9.64 26.24-34.18-3.59-23.12-20 7.19-19.92.73-30.92-5-8.14-6.62-16-10.1-25-10.07-5-21.61 4.83-20.09-14.92.6-11-.86-13 1-21.41 3.53-8.12 14.58-.44 19.78-5.83 3.45-9.36 5.84-18 11.28-27 2.41-7.26-14.64-11.61-8.64-20.69 4.63-5.12 12.81-13.17 17.56-18.21 8.86-7.74 12.56 5.68 20.33 7.33 8.66-5.14 19.52-8.22 28.77-13.13.8-1.23.32-3.74.39-5.67-2.84-19.2 16.22-12.78 27.73-13.88 21.88-1.13 8.31 15.87 15.53 20.87 9.57 2 18.2 7.65 27.36 11.37 9.2-4.49 12-16.62 22.84-4.13 7 9 14.32 11 15.64 20-.32 6.8-12.83 8.9-9.79 16.93 14.22 23.56 2.74 30.16 24.63 28.84z"
            fill="#000000" data-original="#000000"></path>
    </g>
</svg>