<svg xmlns="http://www.w3.org/2000/svg" version="1.1" xmlns:xlink="http://www.w3.org/1999/xlink"
    xmlns:svgjs="http://svgjs.com/svgjs" width="512" height="512" x="0" y="0" viewBox="0 0 250 250"
    style="enable-background:new 0 0 512 512" xml:space="preserve" class="">
    <g>
        <path xmlns="http://www.w3.org/2000/svg"
            d="m225.46 59.77c12.82-3 2.52-10.22.64-18.75-3.27.52-7.09 5.75-10.78-.9-16.7-14 5.48-11.26-11.61-17.33-10.09-5.37-3.7-.1-10 4.13-5.72-1.47-15.88 2.65-16.87-6.78-.37-1.24-.45-2-1.76-1.36-4.38 1.54-15.36 4.36-13.41 5.33 5.18 10.23-3.33 8.31-7.62 15.31.05 1.27-7.73-3-8-3-15.73 29.85 3.36 7.81-.25 26.22 2.79 12.64-8 7.09-6.25 11.26 10.58 28.55 3-3.87 22.59 21 1.57 3.74-5 7.85-.17 8.4 4.7 1.61 10.65 6 10.42 3.8 3.06-10.26 8.72-3.59 16.91-5.4 2.75-.74 4.35 5 5.07 7.2 24.48-7 3.95-5.73 13.36-13.81 14.93-16.26 13.44 1.94 18-7.78 12.62-24.97-5.17 1.23-.27-27.54zm.5.32c2 3.07-2 11.18 2.43 12.61 4 2.13 5.48.66 5.78 3.66-12.69 34.77-9.55 10.62-18.94 18.43-9 6.79.92 7.66-2.51 13.52-20.22 8.82-22.33 10.86-25.3 0-16.33-2.52-6.3 11.89-18.64 5-30.89-12.51-4.57-10.63-16.65-20.89-9.13-7.34-8.13 12.37-15.85-15.42-5.41-10.44 5.24-6.67 6.59-9.85 2.66-16.9-2.66-7.68-6.45-14.75 3.34-4.88 4.86-13.86 9.57-18 .55 0 7.83 4.18 7.28 2.93 1.69-3.41 8.18-5.72 7.27-8.68-8.7-11 12.28-11.11 16.49-14.94 6.12.28 1.49 9.75 10 7.27 11.68 2.27.62-13.6 18.51-3.08 22.52 8.35 2.62 10.28 10.25 16.45 6.67 10.72 8.13-.69 12.92 4 3.89 16.24 11.29 19.27-2.71 21.74z"
            fill="#000000" data-original="#000000" class=""></path>
        <path xmlns="http://www.w3.org/2000/svg"
            d="m167.14 81.93c-22.86-19.11-1.2-46.73 24.5-43.55 22.94 3.07 29.11 34.37 9.59 46-4.73 2.63-3 .65.2-2.86 27.26-49.17-57.8-57.76-34.29.41z"
            fill="#000000" data-original="#000000" class=""></path>
        <path xmlns="http://www.w3.org/2000/svg" d="m188 87.14c-2.68.34-7.17 2.26-11-1.21 2.41-1.04 6.88.79 11 1.21z"
            fill="#000000" data-original="#000000" class=""></path>
        <path xmlns="http://www.w3.org/2000/svg"
            d="m165.79 173.63c-1.65-17.2 1.46-31.21-4.52-28.45-14.88 3.21-10.18-8.78-16.66-16.61-4.64-3.52 6.94-11.07 6.87-12-5-4.8-11.32-11.1-17.71-17.38-10.4 7-4.86 11.3-19.28 3.44-19.82-3.68-5.73-14.6-12.24-16.24-8.15.35-25.74-1.76-24.31.4.68 15.89-1.34 10.55-10.45 14.58-12.49 7.35-10.49 2.2-18.44-4.76-5.29 4.67-15 15.19-20 19.94 11.48 11.22 9.77 6.53 4.72 18.4-3.64 14.87-5.13 9.05-15.62 10.32.13 0 .33 27.43.67 26.25 17.81-1.69 11.63 2.24 17 12.18 7.39 10.85 1.52 10.44-4.13 17.21 2.32.8 18.11 21.55 19.15 15.15 5.64-4.76 5-8.23 10.75-4.9 5.19 3.18 10.17 4.28 16.58 6.69 3.51 3.48-1.31 14.52 3 12.45 29.85-.13 20.2 3.38 22.56-11.27 6.08-2.77 21.53-10.71 22.84-7.19 6.3 5.51 5.51 9.59 10.36 3.73 5.77-6.28 17-14.65 14.68-15.37-12.74-11-5-10.09-2.11-19.35 2.5-12.29 7.85-6.49 16.29-7.22zm.42.42c-14.23 1-12-2.33-15.74 9.36-6.65 11.62 1.95 11.43 5.53 16.3 2.56 2.83-17.56 19.48-19.51 22.8-7.42 8.06-7.79-12.58-20.48-3-14.15 2.76-1 13.47-9.67 17-2.78-.88-32.71 2.35-33.12-1.72-1.79-4.81 2.4-13.13-3.31-13-4.59-1.22-10.66-5-11.13-4.81-12.78 14.06-9.88 7.93-24.3-5.18-14.06-13.21-10.3-10.56-.83-20.67-7.37-19.05-3.92-14.29-17.15-15-3.49-.91-1.91-3.48-2.17-7.19.05-43.05.39-19.49 14.78-28.35 1-5.18 5.74-11.78 6.33-14.91-3.79-5.17-10.53-7.86-7.84-10.32 15.4-13.53 20.31-25.63 24.75-18.26 8.65 10.9 9.13 2.33 22.3-1.21.9-7.06-3-14.85 3.49-13.78 14.36 0 18.27-1.08 29.45-.28 4.89 8.47-4.29 13.41 9 15.87 1.44.14 6.53 3.86 7.5 3.15 12.56-16.22 13.94-2.11 21.9 3.34l10.46 10.81c2.2 3.58-4.32 6.6-6.95 10-3.32.29 3.34 14.46 5.7 17.22 5.24.93 11.32-1.49 12.2 1.5-.23 8.28-.83 21.86-1.19 30.33z"
            fill="#000000" data-original="#000000" class=""></path>
        <path xmlns="http://www.w3.org/2000/svg"
            d="m56.22 141.87c19.15-44.37 76.07-22.35 75.2 20-1.82 44.76-61.92 52.16-75.86 12.73 0-.47-1-2.14.11-1.73 6 10.93 16 18.71 28.63 20.87a37.75 37.75 0 0 0 43.15-29.52c7.55-44.78-49.69-54.07-71.23-22.35z"
            fill="#000000" data-original="#000000" class=""></path>
        <path xmlns="http://www.w3.org/2000/svg" d="m52.81 162c-.24-3-2.48-6.71.35-11 1.38 2.14.24 7-.35 11z"
            fill="#000000" data-original="#000000" class=""></path>
    </g>
</svg>