<svg xmlns="http://www.w3.org/2000/svg" version="1.1" xmlns:xlink="http://www.w3.org/1999/xlink"
    xmlns:svgjs="http://svgjs.com/svgjs" width="512" height="512" x="0" y="0" viewBox="0 0 256 256"
    style="enable-background:new 0 0 512 512" xml:space="preserve" class="">
    <g>
        <path xmlns="http://www.w3.org/2000/svg"
            d="m133.73 137.2c-2.62-.53-20-12-14.08-14.59 2.64-1.14 11.5 14.07 14.08 14.59z" fill="#000000"
            data-original="#000000"></path>
        <path xmlns="http://www.w3.org/2000/svg"
            d="m177.89 61.06c-12.33-7.69-19.86 1.68-27.68 12-5.76 7.59-10.78 15.59-17.13 22.76-.76.86-5.72 6.62-6.73 7.09-.48.22-9.86 1.13-9.83.35s9-2.92 8.69-2.85l-.86.49c9.93-14.52 22.63-28.59 34.28-41.65 4.36-4.89 9.59-7.93 15.68-3.28 1 .77 3.47 5.03 3.58 5.09z"
            fill="#000000" data-original="#000000"></path>
        <path xmlns="http://www.w3.org/2000/svg"
            d="m208.49 50.31c-6.4-6.73-16.67-6.64-21.27 1a2.18 2.18 0 0 0 -.46-.14c-5.11-.87-11.83 9.54-14.92 12.75-14.27 14.87-28.42 30-41.5 45.89 5.8-7 18.25-15.69 25.93-23.08 10.07-9.68 20.09-19.49 29.65-29.69 4.86 4.64 9.83 9.16 14.79 13.69-38.26 40.32-81.24 75.87-120.19 115.56a19.81 19.81 0 0 1 -11-10.6c5.19-5.58 24.61-26.27 23.67-27.34-.45-.51-18.22 16.21-19.41 17.33-5.28 5-9.27 6.81-8.15 12-5.29 7.05-19.77 26.26-17 30 1.34 1.85 21.78-10.49 29.56-15.83a7.28 7.28 0 0 0 2.06.37c6.12.06 14.52-11.45 18.47-15.23 20.48-19.65 40.36-40 59.9-60.55 12.86-13.54 26-26.8 39.82-39.34 3.56-3.23 5.13-5.11 5.15-6.87 1.61-.25 6.71-5.34 7.07-6 2.61-4.73 1.39-10.16-2.17-13.92zm-140.29 144.28c-5.46 3-10.14 6.84-15.56 9.74 3.89-5.65 11.21-16.69 14.09-23.57l.21.47c1.57 3.17 5.87 8.28 10.14 10.22-3.08 1.04-7.16 2.21-8.88 3.14zm138.68-132c-.26.86-2.69 4.77-3.52 6.6-.63-1.87-2.91-3.91-6.29-7.57-1.86-2-6.23-8.45-9.34-10.07 3.74-2.7 13.11-4.67 16.14-2.77 4.44 2.77 4.29 9.63 3.01 13.79z"
            fill="#000000" data-original="#000000"></path>
    </g>
</svg>