<svg xmlns="http://www.w3.org/2000/svg" version="1.1" xmlns:xlink="http://www.w3.org/1999/xlink"
    xmlns:svgjs="http://svgjs.com/svgjs" width="512" height="512" x="0" y="0" viewBox="0 0 250 250"
    style="enable-background:new 0 0 512 512" xml:space="preserve" class="">
    <g>
        <path xmlns="http://www.w3.org/2000/svg"
            d="m86.67 86.75c13.14 7.45 22 19.83 32.23 31.36 16.39 14.17 33.81 27.14 44.75 46.14-15.74-9.69-28.81-23.68-40.66-38.67-10.74-14.09-29.8-22.64-36.32-38.83z"
            fill="#000000" data-original="#000000" class=""></path>
        <path xmlns="http://www.w3.org/2000/svg"
            d="m124.69 84.8c26.44 21.16 1.43 60.94-28.17 49.73a32.79 32.79 0 0 1 -12.24-8.39c-22.63-26.53-65.67-44-41-78.08 16.8-19 41.43-11.28 52.94 8.72-30.22-31.54-62.37-5.12-51.51 22.55 14.85 18.88 32.39 39.89 48.68 50.67 29.44 10.51 49.16-21.58 31.3-45.2z"
            fill="#000000" data-original="#000000" class=""></path>
        <path xmlns="http://www.w3.org/2000/svg"
            d="m103.26 63.57c4.69 4.33 11.31 7.16 14.22 14.22-4.98-.63-11.35-9.7-14.22-14.22z" fill="#000000"
            data-original="#000000" class=""></path>
        <path xmlns="http://www.w3.org/2000/svg"
            d="m202.64 203.14c-28 23.61-46.54-3.14-63.58-20.71-17.14-18.43-32.06-31.85-16.56-55.68 25.28-28.09 47.76-.48 63.45 15.58 20.8 19.94 36.98 37.19 16.69 60.81zm-.42-.42c21.44-25.76-7.46-41.37-21.93-57-16.73-15.9-26.51-34.38-50.49-21.22-30.22 25.09 3 45.21 18.19 59.93 17.54 17.4 31.13 37.23 54.23 18.29z"
            fill="#000000" data-original="#000000" class=""></path>
    </g>
</svg>