<svg xmlns="http://www.w3.org/2000/svg" version="1.1" xmlns:xlink="http://www.w3.org/1999/xlink"
    xmlns:svgjs="http://svgjs.com/svgjs" width="512" height="512" x="0" y="0" viewBox="0 0 250 250"
    style="enable-background:new 0 0 512 512" xml:space="preserve" class="">
    <g>
        <path xmlns="http://www.w3.org/2000/svg"
            d="m52 14.7c47.15-3.49 94.67-2.32 142-.66 4.77-.62 9.15 2.54 8.89 7.66 1.05 54.07 3.35 107.36 1.77 161.37-1.16 7.51 2.67 16.55-5 21.17-12.37 2.15-25.19-.83-38.2-.84-1.07.12-3.45-.72 0-.8 46-3.75 37.54 6.34 37.72-25.78-1.34-51.76.87-102.2 1.89-154 .5-3.41-1.41-7.6-7-6.83-16.25.12-32.14 1.14-48.32 1.54-30.49-.1-65.21.89-93.75-2.83z"
            fill="#000000" data-original="#000000" class=""></path>
        <path xmlns="http://www.w3.org/2000/svg"
            d="m173.46 108.74c37.56-5.11 83.35-.81 42.73 3.33-13.78-.89-30.88-.65-42.73-3.33z" fill="#000000"
            data-original="#000000" class=""></path>
        <path xmlns="http://www.w3.org/2000/svg"
            d="m236.23 107.3c-32.75-29-18.63-14.5-5.25 1.29-38.92 38.55 10.2 6.56 5.25-1.29z" fill="#000000"
            data-original="#000000" class=""></path>
        <path xmlns="http://www.w3.org/2000/svg"
            d="m143.72 38.7c8.34 2.31 18.36.32 17.52 11.94.6 18.28 1 35.88 1.14 51.2.7 41.29.12 71.39-1 111.52-.94 7.71 1.87 9.42-2.8 15.38-4.5 3.58-10.8-.22-16.59-1.2-15.26-3.81-26.81-6.56-43.27-10.27-59.64-14.39-55.1-5.88-55.39-31.33-.53-47.66-.83-94.88 0-141.63 1.21-12.31-4.22-34.17 12.88-28.8 17.3 4.71 23.79 6.49 37.43 10.4 32.2 9-16.67-2-20.31-2.7-6.53.07-23.81-9.26-25.07-.82 1.26 57.39 1.05 116.17.27 173.74-2.61 8.19 16.12 8.05 17.73 9.76 17.41 4.71 30.51 8.23 43.62 11.68 55.61 12.82 48.86 19.86 48.48-14.21-5.17-185.84 11.27-154.06-14.7-164.07h.07s-.62-.29-.01-.59z"
            fill="#000000" data-original="#000000" class=""></path>
        <path xmlns="http://www.w3.org/2000/svg"
            d="m114.55 31.68c6.23 1.27 13.34.25 19.47 4.78-4.57 2.05-14.69-2.41-19.47-4.78z" fill="#000000"
            data-original="#000000" class=""></path>
        <path xmlns="http://www.w3.org/2000/svg"
            d="m146.3 135c.8 16.11-17.1 9.32-16-3.6 3.15-9.79 17.42-8.65 16 3.6zm-.6 0c-4.56-13-23.78 9-3.1 3.6.85-.18 3.13-1.4 3.1-3.6z"
            fill="#000000" data-original="#000000" class=""></path>
    </g>
</svg>