<svg xmlns="http://www.w3.org/2000/svg" version="1.1" xmlns:xlink="http://www.w3.org/1999/xlink"
    xmlns:svgjs="http://svgjs.com/svgjs" width="512" height="512" x="0" y="0" viewBox="0 0 256 256"
    style="enable-background:new 0 0 512 512" xml:space="preserve" class="">
    <g>
        <path xmlns="http://www.w3.org/2000/svg"
            d="m206.33 48.63c-2.15-1.92-8.46-7.16-11.36-6.93-3.1.25-7.23 6.47-9.1 9.94-3.78-.82-5.51 2.43-9 6.09-15 15.58-29.4 31.78-44.61 47.19s-31.7 29.47-47.14 44.65c-4.11 4-8.15 8.17-12.17 12.3-2.19 2.25-11.7 9.51-12 12.48a4.67 4.67 0 0 0 .62 3c-3.91 5.54-17.06 24.43-14.61 27.37a2.18 2.18 0 0 0 1.81.46l.25.24.19-.29c6.46-.84 23.52-10.79 27.6-14.24a5.28 5.28 0 0 0 2.46-.76c3.73-1.98 8.04-9.13 10.63-12.13-2.06 2.43-8.36 6.82-12.45 10.18a36.79 36.79 0 0 0 -11.32-12.59c20.15-19.41 38.77-40.07 58.25-60.14s40.36-38.45 60.43-57.83l10.13 10.38c-12.15 12.09-69.94 69.72-67.74 72.24 1 1.11 53.4-49 56.42-51.95 4.26-4.16 16.17-12.18 18.07-18a5.42 5.42 0 0 0 .12-3.58c3.31-2.12 9.38-6.86 9.74-7.74 1.52-3.77-2.63-7.97-5.22-10.34zm-129.72 142.27c-2 .88-9.14 2.35-11.27 3.39-5.12 2.52-9.44 6-14.54 8.33 3.64-5.76 10.87-17.79 12.14-23.69 1.82 1.52 4.49 2.63 6.55 4.53 3.4 3.14 4.27 7.3 7.12 7.44zm120.74-129.24c-2.72-2.65-6.19-7.71-9.61-9.35a9.77 9.77 0 0 0 -1.41-.54c2.37-1.92 7.66-4.89 9.73-7.35 6.22 1.34 9.44 6.73 11.49 12.47a66.87 66.87 0 0 0 -6.81 8c-.89-1.04-2.13-2-3.39-3.23z"
            fill="#fff" data-original="#000000" class=""></path>
    </g>
</svg>