<svg xmlns="http://www.w3.org/2000/svg" version="1.1" xmlns:xlink="http://www.w3.org/1999/xlink"
    xmlns:svgjs="http://svgjs.com/svgjs" width="512" height="512" x="0" y="0" viewBox="0 0 250 250"
    style="enable-background:new 0 0 512 512" xml:space="preserve" class="">
    <g>
        <path xmlns="http://www.w3.org/2000/svg"
            d="m144.6 179.83c-3.93-3.6-11.89-11-15.79-14.66-26.86 60.05-20.94 64.13-33 30.88-15.81-42.13-33.49-99.28-49.67-145.49-8.82-10.19 69.25 21.68 78.74 22.8 116.63 40.92 111 23.78 41.72 58 64.07 67.6 55.47 45.13 34.73 68.95-25.63 23.09-13.59 22.29-35.07 1.23 1.45-.69 6.72 6 8.67 7.24.87.87 6.77 6.75 7.22 6.76 9.13-9.75 16.82-17.75 29-30.51-63.39-72.5-74.29-44-6.29-78.34-49.15-16.89-113.86-42.52-157.03-56.53 15.69 44.53 40.07 104.46 52.9 145.2 1.23 4.5 3.67 12.94 4.55 12.95 7.6-12.77 13.87-34.05 23.6-46.17 3.41 4.21 14.73 14.08 15.72 17.69z"
            fill="#000000" data-original="#000000" class=""></path>
        <path xmlns="http://www.w3.org/2000/svg" d="m159.49 194.3a15 15 0 0 1 -7.69-7.7 15 15 0 0 1 7.69 7.7z"
            fill="#000000" data-original="#000000" class=""></path>
    </g>
</svg>