<svg xmlns="http://www.w3.org/2000/svg" version="1.1" xmlns:xlink="http://www.w3.org/1999/xlink"
    xmlns:svgjs="http://svgjs.com/svgjs" width="512" height="512" x="0" y="0" viewBox="0 0 256 256"
    style="enable-background:new 0 0 512 512" xml:space="preserve" class="">
    <g>
        <path xmlns="http://www.w3.org/2000/svg"
            d="m45.19 46.72c21.59-3.87 43.61-1.8 65.89-.61 32.7-1.09 67.5-5.34 98.11 1.21-27.61 3.75-55.31 3.52-83.47 1.22-26.72-2.54-55.43 5.11-80.53-1.82z"
            fill="#000000" data-original="#000000"></path>
        <path xmlns="http://www.w3.org/2000/svg"
            d="m84.58 135.5c-.3-7-4.88-13.36-8-20.55a57.92 57.92 0 0 0 4.92 20c-20.29-1.13-40.59 1.81-61.49 2.1 14.23-27.65 22.53-58 32.33-87.88 4.52 10.37 9 27.32 14.12 35.71-1.8-6.08-4.59-15.24-6.28-20.78-3.88-8.17-6-36.1-12.91-12-11.34 28.59-21.5 56.54-29 86.08.47 16.94 12.92 22.76 29.12 19.67 13.2-2.92 29.42 2.17 37.54-12.12 1.18-2.28 3.83-8.16-.35-10.23zm-6.65 14.29c-7.24 9.6-21.22 5-31.9 4.16-11-.51-23.79-1.06-25.82-15 19.79.26 40.51 3.21 61 2.11a17.72 17.72 0 0 1 -3.28 8.73z"
            fill="#000000" data-original="#000000"></path>
        <path xmlns="http://www.w3.org/2000/svg"
            d="m235.16 135.11c-2.92-11.26-31.6-113.42-34.32-88.81-8.89 33.57-29 63.33-31 97.52 5.16 19.58 23.35 14.59 38.65 12.9 8.28-.87 15.13.71 22.37-5 5.59-4.09 9.84-14.08 4.3-16.61zm-54.52-19.82c9.15-21 12.81-44.73 22.21-66.2 7.93 28.91 17.91 58.31 30.61 85.91-20.64-1.23-41.23 1.75-62.47 2.06 3.61-7.06 6.67-14.42 9.65-21.77zm48.29 34.5c-7.24 9.6-21.22 5-31.9 4.16-11-.51-23.79-1.06-25.82-15 19.79.26 40.51 3.21 61 2.11a17.72 17.72 0 0 1 -3.28 8.73z"
            fill="#000000" data-original="#000000"></path>
        <path xmlns="http://www.w3.org/2000/svg"
            d="m185.49 238.89c.84-17.29-19.72-15-31.45-15.55-6.07 1 2-12.18-20.61-9.07 3-18.92 1.72-38.51.19-58.11.12-20.63 3-39.7 2.22-60.64.78-11.88-3.23-24.5-1.45-34.71 4.29-2.84 5.62-7 6.05-12.49 1.69-11.39-7-13-5.7-17.63 1.39-3.91 0-9-1.13-13.78-5-.91-17-8-15.13 6.18a32.67 32.67 0 0 0 1.76 9.42c-5.69 3-9.65 10.06-7 17.29 2 7.49 10.29 9.06 7 18.09-2.39 18.51-.36 34.87.61 53.27-1.38 32.19-4.42 62.85.48 94.93-6.58-.93-17.12-4.71-18.68 7l-2.54.05c-13.3.6-30.87-2.52-32.13 15.1.22 1.72 1.53 2.18 1.58 2 37.97-1.47 78.24 4.81 115.93-1.35zm-61-81.21c-4.11-31.88 2.41-64.3-2.17-96.7a12.22 12.22 0 0 0 9.6 1c-4.16 29.61-2 59.48-.18 89.63-.66 21.12-3.44 41.41.2 62.85-2.66.28-6.19 1.52-9.85 1.65a325.38 325.38 0 0 0 2.43-58.43zm-.8-127c3.07-6.26-3.42-12.62 7.93-12.76-1.1 4-2.52 8.29-.83 13.45a14.28 14.28 0 0 0 -7.27-.15c.09-.17.14-.35.2-.53zm-7.58 20.92c-4.22-16 23.43-20.51 23.7-3.34-1.08 9.27-20.24 13.92-23.7 3.34zm-8.28 169.63c7.45-3.76 16.45-3.7 25.37-1.49 5.36 1.25 11-1.48 15.66 3.44-13.91-.48-28.86-.47-43.14-.12a10.72 10.72 0 0 1 2.11-1.83zm31.08 15.12c-22.56-.33-45.34 2.85-68.3 1.43 1.85-10.12 11.28-9.92 20.18-9.15 14.39.34 27.29.72 41.65.57 31.1 1.4 48.26-8.5 52.4 9.48-14.99-1.58-30.43-2.14-45.93-2.33z"
            fill="#000000" data-original="#000000"></path>
    </g>
</svg>