<svg xmlns="http://www.w3.org/2000/svg" version="1.1" xmlns:xlink="http://www.w3.org/1999/xlink"
    xmlns:svgjs="http://svgjs.com/svgjs" width="512" height="512" x="0" y="0" viewBox="0 0 256 256"
    style="enable-background:new 0 0 512 512" xml:space="preserve" class="">
    <g>
        <path xmlns="http://www.w3.org/2000/svg"
            d="m157.2 150.78c13.3 8.34 24.92 19 35.43 30.58 5 5.49 21.5 16.32 11.41 24.72-8.43 7-17.36-5.79-22.46-11.08-3-3.15-32.44-37.09-30.71-38.22 3.44-2.24 32.24 30.56 35.2 34 2.83 3.26 11.69 18 17.37 11.4 6.63-7.65-14-19-18.1-22.15a161.1 161.1 0 0 1 -16.13-14.66c-3.38-3.49-9.21-12.87-12.01-14.59z"
            fill="#000000" data-original="#000000" class=""></path>
        <path xmlns="http://www.w3.org/2000/svg"
            d="m169.57 131.17c-10.07 27.08-36.13 45.75-64.68 48.22-30.25 2.61-58.65-14.09-73.83-39.9-32.06-54.59 9.65-126.04 73.94-120.29a78.21 78.21 0 0 1 45 19.54 77.33 77.33 0 0 1 14.88 18.1c.91 1.55 10.44 22.22 8.49 22.64 1.67-.36-16.49-28.32-18.59-30.51a77.63 77.63 0 0 0 -32.68-20.29c-28.44-8.92-60.38-.26-80.2 22-18.81 21.18-25 52.59-13.82 78.88 11.35 26.7 38 43.23 66.57 44.6a78.79 78.79 0 0 0 45.35-11.73c10.75-6.69 25.51-20.14 29.57-31.26z"
            fill="#000000" data-original="#000000" class=""></path>
        <path xmlns="http://www.w3.org/2000/svg"
            d="m163.2 99.5c.08 36.82-30.47 68.54-67.94 66-33.58-2.23-60.89-31.06-62.26-64.5-1.52-35.42 26.75-66.39 62.23-68 37.44-1.81 68.13 29.42 67.97 66.5zm-.4 0c-.31-33.35-28.17-60.86-61.23-62.32-33.96-1.49-63.69 24.82-66.3 58.82-2.81 36.42 27 67 63.23 66.39 34.19-.61 64.04-28.15 64.3-62.89z"
            fill="#000000" data-original="#000000" class=""></path>
    </g>
</svg>