<svg xmlns="http://www.w3.org/2000/svg" version="1.1" xmlns:xlink="http://www.w3.org/1999/xlink"
    xmlns:svgjs="http://svgjs.com/svgjs" width="512" height="512" x="0" y="0" viewBox="0 0 250 250"
    style="enable-background:new 0 0 512 512" xml:space="preserve" class="">
    <g>
        <path xmlns="http://www.w3.org/2000/svg"
            d="m209.5 49.3c-46.14 1.34-92.8 3.63-139.24.74-13.94-2.1-38.12 6-37-8.86-2.52-15.18 22.89-8.8 31.22-10.59 24.15-.51 52-.91 74.6-.76 27.77 1.11 49.37-.74 74.4 3.86 4.45 3.24 3.77 15.64-3.98 15.61zm0-.6c6.52.35 8.32-12.14 1.62-14.75-21.9.24-45.45 2.44-66.78 2.17-105.1 1.73-108.34-7.47-108.57 5.45-.49 4.66 2.21 7 8.86 6.45 26.72.56 51.4-1.3 77.94-1.67 29.43-.62 57.43 2.45 86.93 2.35z"
            fill="#000000" data-original="#000000" class=""></path>
        <path xmlns="http://www.w3.org/2000/svg"
            d="m116.7 32c-7.5-23.7 27.67-22.81 16.6 0-2.94-1.49-1.71-8-5.42-11.12-9.13-5.95-9.2 5.96-11.18 11.12z"
            fill="#000000" data-original="#000000" class=""></path>
        <path xmlns="http://www.w3.org/2000/svg"
            d="m86.72 213.06c.73 2.89-2.59 7.35-6.77 6.23-10.07.64-6.86-61.57-9.34-64.33-3.52-25.62-6.61-50.79-7.44-76.83-.88-5.85 9.31-9.59 11.32-2.21.28.82-.13 2.17-.58.18-1.71-4.83-9-2.63-8.08 1.92 2.66 18.43 4 34.6 5.12 52.84.25 23 3.58 46 6 67.63.24 9.38.94 28.19 9.77 14.57z"
            fill="#000000" data-original="#000000" class=""></path>
        <path xmlns="http://www.w3.org/2000/svg"
            d="m108.75 210.19c1 4.62-6.37 9-10.22 4-5.32-18.68-1.9-39.77-4.17-59.53-2.81-25.84-5.42-50.87-5.49-77-.11-6 9.64-8.62 11.42-1.49.22 1.53-.2 1.58-1-.69-2.25-4.29-8.69-1.17-7.69 2.66a609.58 609.58 0 0 1 3.87 63.24c-.47 18.61 2.87 36.82 4 54.39.73 6.68-.35 11 1.1 17 3.13 4.29 6.93.53 8.18-2.58z"
            fill="#000000" data-original="#000000" class=""></path>
        <path xmlns="http://www.w3.org/2000/svg"
            d="m124.75 213.7c-8.57-.31-4.38-15.37-5.74-21.8-1.72-28.51-.83-53.48 0-83.2 1.14-10.87-1.92-23.16 1-34.83 4.3-5.24 11.91-1.2 11.11 5-.18 35.3 4.56 140.67-6.37 134.83zm0-.4c9.84 1.78 1.44-44.82 3.13-48.91-.54-26.14-.16-53.77.33-78.78-.39-7 2.55-11.8-4.65-11.87-6.38-.8-2 42.82-3 41.83 4.09 75.27-6.2 97.26 4.19 97.73z"
            fill="#000000" data-original="#000000" class=""></path>
        <path xmlns="http://www.w3.org/2000/svg"
            d="m149.14 77.17c-.29-5 7.41-8 10.62-2.67 3.34 19.65-3.32 39.76-3.32 59.58-1.72 15.09 2.79 101.69-15.39 78.81-.07 0-.8-2.81.1-2.68.13 2.74 3.15 5.58 6.43 3.9 1.64-1.19 2.14-2.54 2-5a609.75 609.75 0 0 1 4.08-62c2.83-18.49 1.75-37.42 2.94-54.84.14-7.18 1.7-10.38 1-16.64-2.6-4.63-6.83-1.4-8.46 1.54z"
            fill="#000000" data-original="#000000" class=""></path>
        <path xmlns="http://www.w3.org/2000/svg"
            d="m174.42 77.06c-.12-3.14 3.78-6.71 7.73-5 10 1-3.69 61.83-1.72 64.95-.88 25.84-2.12 51.16-5.73 76.94-.14 5.67-10.54 8.06-11.51.52.1.27-.2-2 .45-1.35.26 5.62 8.18 5.95 8.43.49.64-21.66 2.38-40.63 5-61.84 3.46-20.06 2.93-38.38 4.43-58.27 1.01-7.61 4.57-28.97-7.08-16.44z"
            fill="#000000" data-original="#000000" class=""></path>
        <path xmlns="http://www.w3.org/2000/svg"
            d="m188 58.7c6.38-.33 15.95-2.15 15.53 7.59-.54 8.39-1.05 17.19-1.68 25.87-3 40.31-5.66 74.89-10.47 114.8-2.73 36.18-5.1 24.63-35.37 26-51.66-1.64-90.38 4.3-93.72-1.94-2.54-2.77-2.06-8.33-2.57-10.73-4.41-40.21-7.63-71.64-11.57-113.53-2.37-41.15-11.15-52.43 13.91-50.36 29.27.49 47.51.91 73.4 1.82 3.76.61 10.6-.65 12.54 1.08-25.32 1-53.72 1.76-77 2.15-11.29.85-13.59-1.15-19.73 1.26-2 9 1.93 21.31 2.06 31.22 4 39.41 7.57 83.13 10.64 121.74 1.49 7.68-1.75 12.46 4.57 14.38 8.5.22 22 .48 31.49.66 22.28.42 40.69.54 65.83.15 7.74-.62 20.28 1.86 20-4.93 12.85-189.53 25.72-161.26 2.14-167.23z"
            fill="#000000" data-original="#000000" class=""></path>
        <path xmlns="http://www.w3.org/2000/svg" d="m178 59.15c-6.34.26-13 2.94-20 0 3.93-3.07 14.81-1.15 20 0z"
            fill="#000000" data-original="#000000" class=""></path>
    </g>
</svg>