<svg xmlns="http://www.w3.org/2000/svg" version="1.1" xmlns:xlink="http://www.w3.org/1999/xlink"
    xmlns:svgjs="http://svgjs.com/svgjs" width="512" height="512" x="0" y="0" viewBox="0 0 250 250"
    style="enable-background:new 0 0 512 512" xml:space="preserve" class="">
    <g>
        <path xmlns="http://www.w3.org/2000/svg"
            d="m111.38 72.81c0-26.59-24.93-48.31-52.47-42.06-22.94 5-37.48 27-36 51 .77 7.57-3 15.86 1.27 18.68 14.57 1.13 12 .7 12.46-11.44-5.08-51.51 46.36-55.07 59.36-24.55 4 6 2.86 46.54 4.6 29.63 13.52-73.77-75.95-70.34-69.31-10-.79 6.46 3.59 13.5-5 12.2-3.36-31.94 2-58.53 37.69-61.93 36.08 0 45.95 29.1 45 58 1.08 19.13 2.43-16 2.4-19.53z"
            fill="#000000" data-original="#000000" class=""></path>
        <path xmlns="http://www.w3.org/2000/svg" d="m155.5 98.26c6.34-.26 13-2.94 20 0-3.93 3.07-14.81 1.16-20 0z"
            fill="#000000" data-original="#000000" class=""></path>
        <path xmlns="http://www.w3.org/2000/svg"
            d="m185.5 98.11c37.54-.69 37.27-8.28 37.54 22.21.42 26.52.81 51.23.14 77.34-1.32 10.4 2.71 13.72-4.32 20-4.16 2.08-5.8.59-12.49.78-130.76-3.44-145.1 10.21-144.87-9.9-.39-33.58-.62-70.62 0-104.15.52-9.79 9.9-8.83 18.72-8.4 12.83.26 26.78.63 40.24 1.1 8.52.58 17.21.09 25.29 1.33-1 .7-2.58.23-5 .5-88 5.09-72.1-6.14-73.53 19.3.44 30.56.15 62.67-.18 92.88-.12 5.83 17.69 2.46 21.31 3.49 15.93.32 34.35.88 49.62 1.18 21.64.47 43.94.4 61.9-.06 10.08-1.42 18.69 3 18.91-5.72-4.53-140.11 15.36-103.09-33.28-111.88z"
            fill="#000000" data-original="#000000" class=""></path>
        <path xmlns="http://www.w3.org/2000/svg"
            d="m157.33 140.58c-8.87-18.58-34.33-8.58-31.03 11.42 6.71 20.74 11.35 4.17 8.75 28-1 5.49 10.22 4.31 14.86 3.35 3.19-4 .52-9.29.93-14.67-.13-2.3-.89-2.45 1.74-4.09 6.91-5.73 8.42-16.03 4.75-24.01zm-2.2 17.55c-2.16 2.25-4.84 3.33-8.66 4.39-2.48 4.11-1.05 9.66-1.66 14.95-.51-.31-4.17.79-4-.42-.22-5.58-.32-7.6-.8-12.5-3.36-4-12.66-5.7-12.07-14.26 1.12-25.09 43.21-13.68 27.19 7.84z"
            fill="#000000" data-original="#000000" class=""></path>
    </g>
</svg>