<svg xmlns="http://www.w3.org/2000/svg" version="1.1" xmlns:xlink="http://www.w3.org/1999/xlink"
    xmlns:svgjs="http://svgjs.com/svgjs" width="512" height="512" x="0" y="0" viewBox="0 0 256 256"
    style="enable-background:new 0 0 512 512" xml:space="preserve" class="">
    <g>
        <path xmlns="http://www.w3.org/2000/svg"
            d="m238.53 119.19c-2.62-11.1-13.5-2.06-11.75-9.41-2-74.72 10.16-69.82-40.6-69.11-52.18.91-106.27 1.21-158.33 1.84-12.35 3.81-7.36 18.58-8.47 21.64.62 49.27-6.38 147.18 3.13 148.54 3.12 2.65 6.37 3.08 10.27 2.93 36.84-.29 72.23-.77 108.54-1.83 3.73-.56 10.43.72 12.31-1-39.52-1.3-78-1.85-118.27-2.19-6.56.34-12.7-.66-12.12-9.56.11-17.42.11-35.37 0-53.08.51-19.73-2.61-78.57-.77-98.39-.23 10.67 12.24 11.26 19.53 10.93 12 .42 19.72.55 30.29.68 44.4.58 88.44-2.87 133-.32 4.44-1.39 2 15.84 2.72 17.53.29 12.88.52 22.42 1.37 34.53-6.49.18-24.48-.4-30.87.29-26.14 4.43-27.4 38.69-5.07 47.06 14.38 3.68 20.73.52 42 1.16 7.11.43 5.89-2.12 6.07 3.84-.69 36.13 6.95 47.9-13.78 46.9-10.24.13-36 .8-16.64 1.47 14.49-.8 35.12 6.89 34-14.55.22-12.18.38-21.23.67-38-.77-3.47 3.58-.25 8.11-2.28 4.65-3.57 3.83-36.97 4.66-39.62zm-27.11-56c-.12-4-3.57-6.69-9.41-5.75-18.47.66-38.27 1.56-57.48.73-115.38-5-116.95 7.4-121.89-9.05 3.92-8.56 20.33-4 27.91-5.1 34.29 0 51.24.33 92.21 1 16.57.27 32.86.49 56.06.72 7.42 1.32 18.44-3.72 21.82 5.82-.51 75.92 3.63 59.51-10.74 61.4 1.1-16.15 1.46-33.44 1.52-49.77zm22.92 94.37c-2.75 2.55-8.52 1.15-10.74-.66l-9.82-.12c-21.64-1.51-25.14 2.5-40.73-2.85-15.33-8.7-10.84-31.29 5.7-34.34 14.59-.16 40.29-1.29 53.9.38-.35 12.15 3.94 25.54 1.69 37.59z"
            fill="white" data-original="white" class=""></path>
        <path xmlns="http://www.w3.org/2000/svg" d="m209.43 211.11c4.87-14.11.6-32.94.4-49-1.52 14.46-3.89 32.97-.4 49z"
            fill="white" data-original="white" class=""></path>
        <path xmlns="http://www.w3.org/2000/svg"
            d="m194.93 137.11c.8 16.12-17.1 9.33-16-3.6 3.14-9.79 17.41-8.65 16 3.6zm-.6 0c-4.56-13-23.78 9-3.11 3.6.86-.18 3.13-1.4 3.11-3.6z"
            fill="white" data-original="white" class=""></path>
    </g>
</svg>